# xmcd
#
# Track frame offsets:
#	150
#	24109
#	53183
#	78782
#	100970
#	119727
#	143451
#	169362
#	194114
#	217175
#	243070
#	274476
#	301371
#
# Disc length: 4409 seconds
#
# Revision: 1
# Processed by: cddbd v1.5.1PL0 Copyright (c) Steve Scherf et al.
# Submitted via: audiograbber 1.81.02
#
DISCID=bb11370d
DTITLE=Jochen Pash - Creme 21 der club
DYEAR=2004
DGENRE=House
TTITLE0=Esteban Garcia- Feel Free (Guido's train mix)
TTITLE1=Gadjo- So many times (Exendet Club)
TTITLE2=Negrocan- Cada Vez (Richard Earnshaw Dub Remix) 
TTITLE3=Mambana- Libre (Axwell Dub Mix)
TTITLE4=Universal Love- Ritmo Da Rua (Brain Tappert Prime Time Vibe)
TTITLE5=Woodboy and Toe B. Feat. Ester Adam- I want you ( Shik Stylko Vocal Dub)
TTITLE6=Mood 2 Swing- Can't get  away from you (original MIX)
TTITLE7=Morris T. Feat. Barbara Tucker- Let me be ( Syke'n'sugarstarr remix)
TTITLE8=Shik Stylko Feat. Tyree Cooper- Groove you out tonight  (Grant Nelson &
TTITLE8=Brian Tappert's Soulcity Edit)
TTITLE9=Styke'N'Sugarstarr- Ticket To Ride (Original Mix)
TTITLE10=Gipsy- Gipsy (Vocal Edit)
TTITLE11=Raul Rincon Feat. Velvet Voice- Just A Mash Affair (Jochen Pash Meets 
TTITLE11=Raul Rincon Mix)
TTITLE12=Kienzle and Iberle- Touch Me ( Raul Rincon Sexy Touch Mix)
EXTD=Mixed by Jochen Pash
EXTT0=
EXTT1=
EXTT2=
EXTT3=
EXTT4=
EXTT5=
EXTT6=
EXTT7=
EXTT8=
EXTT9=
EXTT10=
EXTT11=
EXTT12=
PLAYORDER=
